<svg width="83" height="25" viewBox="0 0 83 25" fill="none" xmlns="http://www.w3.org/2000/svg">
<path d="M0.704581 7.14718L4.85144 7.1469L4.85255 23.7343L0.705694 23.7346L0.704581 7.14718ZM18.2135 6.63917C15.7715 6.63933 13.7903 8.1139 13.0532 9.77269L12.961 9.7727L12.9608 7.10028L9.04437 7.10054L9.04548 23.688L13.1923 23.6877L13.1917 14.6107C13.1916 12.399 14.4355 10.0951 17.0618 10.095C19.7342 10.0948 20.1952 12.5368 20.1953 14.5181L20.1959 23.7333L24.3428 23.733L24.3421 13.3659C24.3419 10.0023 22.5447 6.63888 18.2135 6.63917ZM53.9232 16.2667C53.9233 18.4784 52.6794 20.7822 50.0531 20.7824C47.3807 20.7826 46.9197 18.3406 46.9196 16.3593L46.919 7.14408L42.7721 7.14436L42.7728 17.5115C42.7731 20.8751 44.5703 24.1924 48.9014 24.1921C51.3435 24.192 53.3246 22.7174 54.0617 21.0586L54.1539 21.0586L54.1541 23.731L58.0705 23.7308L58.0694 7.14333L53.9226 7.14361L53.9232 16.2667ZM62.3096 23.7305L66.4564 23.7302L66.4553 7.14277L62.3084 7.14305L62.3096 23.7305ZM26.4614 10.7855L31.1151 10.7852L31.116 23.7326L35.2628 23.7323L35.262 10.7849L39.9157 10.7846L39.9154 7.09847L26.4612 7.09938L26.4614 10.7855ZM33.1881 4.97942C34.5704 4.97933 35.6762 3.87342 35.6761 2.49114C35.676 1.10885 34.5701 0.00309781 33.1878 0.0031906C31.8055 0.00328338 30.6998 1.10919 30.6999 2.49147C30.7 3.87376 31.8059 4.97951 33.1881 4.97942ZM69.3581 7.14257L69.3583 10.8287L74.012 10.8284L74.0129 23.7758L78.1598 23.7755L78.1589 10.782L82.8126 10.7817L82.8123 7.09559L69.3581 7.0965L69.3581 7.14257ZM76.0851 4.97654C77.4674 4.97645 78.5731 3.87054 78.573 2.48826C78.5729 1.10597 77.467 0.000218318 76.0847 0.000311105C74.7025 0.000403892 73.5967 1.10631 73.5968 2.48859C73.5969 3.8248 74.7028 4.97663 76.0851 4.97654Z" fill="#B5AFAF"/>
</svg>
