<svg width="198" height="31" viewBox="0 0 198 31" fill="none" xmlns="http://www.w3.org/2000/svg">
<path d="M32.728 25V7.12H38.56C40.448 7.12 42.088 7.504 43.48 8.272C44.888 9.024 45.976 10.072 46.744 11.416C47.512 12.744 47.896 14.288 47.896 16.048C47.896 17.792 47.512 19.344 46.744 20.704C45.976 22.048 44.888 23.104 43.48 23.872C42.088 24.624 40.448 25 38.56 25H32.728ZM35.992 22.12H38.632C39.848 22.12 40.896 21.872 41.776 21.376C42.672 20.864 43.368 20.16 43.864 19.264C44.36 18.352 44.608 17.28 44.608 16.048C44.608 14.8 44.36 13.728 43.864 12.832C43.368 11.936 42.672 11.24 41.776 10.744C40.896 10.248 39.848 10 38.632 10H35.992V22.12ZM50.2296 25V11.944H53.3736V25H50.2296ZM50.2296 10.48V7.12H53.3736V10.48H50.2296ZM62.6125 30.28C61.6365 30.28 60.7325 30.12 59.9005 29.8C59.0685 29.48 58.3485 29.032 57.7405 28.456C57.1485 27.896 56.7165 27.232 56.4445 26.464L59.3725 25.36C59.5645 25.968 59.9405 26.456 60.5005 26.824C61.0765 27.208 61.7805 27.4 62.6125 27.4C63.2525 27.4 63.8125 27.28 64.2925 27.04C64.7885 26.8 65.1725 26.448 65.4445 25.984C65.7165 25.536 65.8525 24.992 65.8525 24.352V21.376L66.4525 22.096C66.0045 22.88 65.4045 23.472 64.6525 23.872C63.9005 24.272 63.0445 24.472 62.0845 24.472C60.8685 24.472 59.7805 24.192 58.8205 23.632C57.8605 23.072 57.1085 22.304 56.5645 21.328C56.0205 20.352 55.7485 19.256 55.7485 18.04C55.7485 16.808 56.0205 15.712 56.5645 14.752C57.1085 13.792 57.8525 13.04 58.7965 12.496C59.7405 11.936 60.8125 11.656 62.0125 11.656C62.9885 11.656 63.8445 11.864 64.5805 12.28C65.3325 12.68 65.9565 13.264 66.4525 14.032L66.0205 14.824V11.944H68.9965V24.352C68.9965 25.488 68.7165 26.504 68.1565 27.4C67.6125 28.296 66.8605 29 65.9005 29.512C64.9565 30.024 63.8605 30.28 62.6125 30.28ZM62.4685 21.568C63.1405 21.568 63.7245 21.424 64.2205 21.136C64.7325 20.832 65.1325 20.416 65.4205 19.888C65.7085 19.36 65.8525 18.752 65.8525 18.064C65.8525 17.392 65.7005 16.792 65.3965 16.264C65.1085 15.72 64.7085 15.296 64.1965 14.992C63.7005 14.688 63.1245 14.536 62.4685 14.536C61.8125 14.536 61.2205 14.688 60.6925 14.992C60.1645 15.296 59.7485 15.72 59.4445 16.264C59.1565 16.792 59.0125 17.392 59.0125 18.064C59.0125 18.736 59.1565 19.336 59.4445 19.864C59.7485 20.392 60.1565 20.808 60.6685 21.112C61.1965 21.416 61.7965 21.568 62.4685 21.568ZM71.9328 25V11.944H75.0768V25H71.9328ZM71.9328 10.48V7.12H75.0768V10.48H71.9328ZM83.9316 25.144C82.4596 25.144 81.3156 24.744 80.4996 23.944C79.6996 23.128 79.2996 21.984 79.2996 20.512V14.752H77.0436V11.944H77.2836C77.9236 11.944 78.4196 11.776 78.7716 11.44C79.1236 11.104 79.2996 10.616 79.2996 9.976V8.968H82.4436V11.944H85.4436V14.752H82.4436V20.344C82.4436 20.776 82.5156 21.144 82.6596 21.448C82.8196 21.752 83.0596 21.984 83.3796 22.144C83.7156 22.304 84.1396 22.384 84.6516 22.384C84.7636 22.384 84.8916 22.376 85.0356 22.36C85.1956 22.344 85.3476 22.328 85.4916 22.312V25C85.2676 25.032 85.0116 25.064 84.7236 25.096C84.4356 25.128 84.1716 25.144 83.9316 25.144ZM91.8068 25.288C90.8948 25.288 90.1028 25.136 89.4308 24.832C88.7588 24.528 88.2388 24.096 87.8708 23.536C87.5028 22.96 87.3188 22.296 87.3188 21.544C87.3188 20.824 87.4788 20.184 87.7988 19.624C88.1188 19.048 88.6148 18.568 89.2868 18.184C89.9588 17.8 90.8068 17.528 91.8308 17.368L96.1028 16.672V19.072L92.4308 19.696C91.8068 19.808 91.3428 20.008 91.0388 20.296C90.7348 20.584 90.5828 20.96 90.5828 21.424C90.5828 21.872 90.7508 22.232 91.0868 22.504C91.4388 22.76 91.8708 22.888 92.3828 22.888C93.0388 22.888 93.6148 22.752 94.1108 22.48C94.6228 22.192 95.0148 21.8 95.2868 21.304C95.5748 20.808 95.7188 20.264 95.7188 19.672V16.312C95.7188 15.752 95.4948 15.288 95.0468 14.92C94.6148 14.536 94.0388 14.344 93.3188 14.344C92.6468 14.344 92.0468 14.528 91.5188 14.896C91.0068 15.248 90.6308 15.72 90.3908 16.312L87.8228 15.064C88.0788 14.376 88.4788 13.784 89.0228 13.288C89.5828 12.776 90.2388 12.376 90.9908 12.088C91.7428 11.8 92.5588 11.656 93.4388 11.656C94.5108 11.656 95.4548 11.856 96.2708 12.256C97.0868 12.64 97.7188 13.184 98.1668 13.888C98.6308 14.576 98.8628 15.384 98.8628 16.312V25H95.8868V22.768L96.5588 22.72C96.2228 23.28 95.8228 23.752 95.3588 24.136C94.8948 24.504 94.3668 24.792 93.7748 25C93.1828 25.192 92.5268 25.288 91.8068 25.288ZM101.769 25V6.832H104.913V25H101.769ZM116.041 25.288C115.129 25.288 114.337 25.136 113.665 24.832C112.993 24.528 112.473 24.096 112.105 23.536C111.737 22.96 111.553 22.296 111.553 21.544C111.553 20.824 111.713 20.184 112.033 19.624C112.353 19.048 112.849 18.568 113.521 18.184C114.193 17.8 115.041 17.528 116.065 17.368L120.337 16.672V19.072L116.665 19.696C116.041 19.808 115.577 20.008 115.273 20.296C114.969 20.584 114.817 20.96 114.817 21.424C114.817 21.872 114.985 22.232 115.321 22.504C115.673 22.76 116.105 22.888 116.617 22.888C117.273 22.888 117.849 22.752 118.345 22.48C118.857 22.192 119.249 21.8 119.521 21.304C119.809 20.808 119.953 20.264 119.953 19.672V16.312C119.953 15.752 119.729 15.288 119.281 14.92C118.849 14.536 118.273 14.344 117.553 14.344C116.881 14.344 116.281 14.528 115.753 14.896C115.241 15.248 114.865 15.72 114.625 16.312L112.057 15.064C112.313 14.376 112.713 13.784 113.257 13.288C113.817 12.776 114.473 12.376 115.225 12.088C115.977 11.8 116.793 11.656 117.673 11.656C118.745 11.656 119.689 11.856 120.505 12.256C121.321 12.64 121.953 13.184 122.401 13.888C122.865 14.576 123.097 15.384 123.097 16.312V25H120.121V22.768L120.793 22.72C120.457 23.28 120.057 23.752 119.593 24.136C119.129 24.504 118.601 24.792 118.009 25C117.417 25.192 116.761 25.288 116.041 25.288ZM132.339 30.28C131.363 30.28 130.459 30.12 129.627 29.8C128.795 29.48 128.075 29.032 127.467 28.456C126.875 27.896 126.443 27.232 126.171 26.464L129.099 25.36C129.291 25.968 129.667 26.456 130.227 26.824C130.803 27.208 131.507 27.4 132.339 27.4C132.979 27.4 133.539 27.28 134.019 27.04C134.515 26.8 134.899 26.448 135.171 25.984C135.443 25.536 135.579 24.992 135.579 24.352V21.376L136.179 22.096C135.731 22.88 135.131 23.472 134.379 23.872C133.627 24.272 132.771 24.472 131.811 24.472C130.595 24.472 129.507 24.192 128.547 23.632C127.587 23.072 126.835 22.304 126.291 21.328C125.747 20.352 125.475 19.256 125.475 18.04C125.475 16.808 125.747 15.712 126.291 14.752C126.835 13.792 127.579 13.04 128.523 12.496C129.467 11.936 130.539 11.656 131.739 11.656C132.715 11.656 133.571 11.864 134.307 12.28C135.059 12.68 135.683 13.264 136.179 14.032L135.747 14.824V11.944H138.723V24.352C138.723 25.488 138.443 26.504 137.883 27.4C137.339 28.296 136.587 29 135.627 29.512C134.683 30.024 133.587 30.28 132.339 30.28ZM132.195 21.568C132.867 21.568 133.451 21.424 133.947 21.136C134.459 20.832 134.859 20.416 135.147 19.888C135.435 19.36 135.579 18.752 135.579 18.064C135.579 17.392 135.427 16.792 135.123 16.264C134.835 15.72 134.435 15.296 133.923 14.992C133.427 14.688 132.851 14.536 132.195 14.536C131.539 14.536 130.947 14.688 130.419 14.992C129.891 15.296 129.475 15.72 129.171 16.264C128.883 16.792 128.739 17.392 128.739 18.064C128.739 18.736 128.883 19.336 129.171 19.864C129.475 20.392 129.883 20.808 130.395 21.112C130.923 21.416 131.523 21.568 132.195 21.568ZM147.851 25.288C146.507 25.288 145.331 24.984 144.323 24.376C143.315 23.768 142.531 22.944 141.971 21.904C141.411 20.864 141.131 19.712 141.131 18.448C141.131 17.136 141.411 15.976 141.971 14.968C142.547 13.944 143.323 13.136 144.299 12.544C145.291 11.952 146.395 11.656 147.611 11.656C148.635 11.656 149.531 11.824 150.299 12.16C151.083 12.496 151.747 12.96 152.291 13.552C152.835 14.144 153.251 14.824 153.539 15.592C153.827 16.344 153.971 17.16 153.971 18.04C153.971 18.264 153.955 18.496 153.923 18.736C153.907 18.976 153.867 19.184 153.803 19.36H143.723V16.96H152.027L150.539 18.088C150.683 17.352 150.643 16.696 150.419 16.12C150.211 15.544 149.859 15.088 149.363 14.752C148.883 14.416 148.299 14.248 147.611 14.248C146.955 14.248 146.371 14.416 145.859 14.752C145.347 15.072 144.955 15.552 144.683 16.192C144.427 16.816 144.331 17.576 144.395 18.472C144.331 19.272 144.435 19.984 144.707 20.608C144.995 21.216 145.411 21.688 145.955 22.024C146.515 22.36 147.155 22.528 147.875 22.528C148.595 22.528 149.203 22.376 149.699 22.072C150.211 21.768 150.611 21.36 150.899 20.848L153.443 22.096C153.187 22.72 152.787 23.272 152.243 23.752C151.699 24.232 151.051 24.608 150.299 24.88C149.563 25.152 148.747 25.288 147.851 25.288ZM156.355 25V11.944H159.307V14.512L159.067 14.056C159.371 13.272 159.867 12.68 160.555 12.28C161.259 11.864 162.075 11.656 163.003 11.656C163.963 11.656 164.811 11.864 165.547 12.28C166.299 12.696 166.883 13.28 167.299 14.032C167.715 14.768 167.923 15.624 167.923 16.6V25H164.779V17.344C164.779 16.768 164.667 16.272 164.443 15.856C164.219 15.44 163.907 15.12 163.507 14.896C163.123 14.656 162.667 14.536 162.139 14.536C161.627 14.536 161.171 14.656 160.771 14.896C160.371 15.12 160.059 15.44 159.835 15.856C159.611 16.272 159.499 16.768 159.499 17.344V25H156.355ZM176.869 25.288C175.573 25.288 174.405 24.992 173.365 24.4C172.341 23.792 171.533 22.976 170.941 21.952C170.349 20.912 170.053 19.744 170.053 18.448C170.053 17.152 170.349 15.992 170.941 14.968C171.533 13.944 172.341 13.136 173.365 12.544C174.405 11.952 175.573 11.656 176.869 11.656C177.797 11.656 178.661 11.824 179.461 12.16C180.261 12.48 180.949 12.928 181.525 13.504C182.117 14.064 182.541 14.736 182.797 15.52L180.037 16.72C179.797 16.064 179.389 15.536 178.813 15.136C178.253 14.736 177.605 14.536 176.869 14.536C176.181 14.536 175.565 14.704 175.021 15.04C174.493 15.376 174.077 15.84 173.773 16.432C173.469 17.024 173.317 17.704 173.317 18.472C173.317 19.24 173.469 19.92 173.773 20.512C174.077 21.104 174.493 21.568 175.021 21.904C175.565 22.24 176.181 22.408 176.869 22.408C177.621 22.408 178.277 22.208 178.837 21.808C179.397 21.408 179.797 20.872 180.037 20.2L182.797 21.448C182.541 22.184 182.125 22.848 181.549 23.44C180.973 24.016 180.285 24.472 179.485 24.808C178.685 25.128 177.813 25.288 176.869 25.288ZM186.767 30.304C186.415 30.304 186.071 30.272 185.735 30.208C185.399 30.16 185.095 30.072 184.823 29.944V27.304C185.031 27.352 185.279 27.4 185.567 27.448C185.871 27.496 186.151 27.52 186.407 27.52C187.127 27.52 187.647 27.352 187.967 27.016C188.303 26.68 188.599 26.24 188.855 25.696L189.719 23.68L189.671 26.32L183.983 11.944H187.367L191.351 22.552H190.151L194.111 11.944H197.519L191.831 26.32C191.495 27.168 191.087 27.888 190.607 28.48C190.127 29.072 189.567 29.52 188.927 29.824C188.303 30.144 187.583 30.304 186.767 30.304Z" fill="black"/>
<path d="M17.1397 13.9152C17.1397 14.0698 17.1397 14.2244 17.1397 14.4564C17.1397 18.1671 14.1287 21.2594 10.3456 21.2594C7.56618 21.2594 5.09558 19.5586 4.0919 17.0848C4.0919 16.9302 4.0919 16.8529 4.0919 16.6983C4.0919 12.9875 7.10293 9.89526 10.886 9.89526C13.6654 9.89526 16.0588 11.5187 17.1397 13.9152L17.0625 0C7.64337 0 0 7.65337 0 17.0848H3.93748V31C13.3566 31 21 23.3466 21 13.9152H17.1397Z" fill="#6153CD"/>
</svg>
